<?xml version="1.0" encoding="UTF-8" standalone="no"?>
<svg width="14px" height="13px" viewBox="0 0 14 13" version="1.1" xmlns="http://www.w3.org/2000/svg" xmlns:xlink="http://www.w3.org/1999/xlink">
    <!-- Generator: Sketch 40 (33762) - http://www.bohemiancoding.com/sketch -->
    <title>Combined Shape</title>
    <desc>Created with Sketch.</desc>
    <defs></defs>
    <g id="05_Navigation" stroke="none" stroke-width="1" fill="none" fill-rule="evenodd">
        <g id="Navigation_New-item1" transform="translate(-444.000000, -281.000000)" fill="#979797">
            <g id="teat-area" transform="translate(424.000000, 146.000000)">
                <g id="knowledge-hub" transform="translate(0.000000, 111.000000)">
                    <path d="M25.5622066,29.5 L21.0477946,29.5 C20.4954882,29.5 20.0469484,29.9477153 20.0469484,30.5 C20.0469484,31.0561352 20.4950425,31.5 21.0477946,31.5 L25.5622066,31.5 L25.5622066,36.014412 C25.5622066,36.5667183 26.0099218,37.0152582 26.5622066,37.0152582 C27.1183418,37.0152582 27.5622066,36.5671641 27.5622066,36.014412 L27.5622066,31.5 L32.0766186,31.5 C32.6289249,31.5 33.0774648,31.0522847 33.0774648,30.5 C33.0774648,29.9438648 32.6293707,29.5 32.0766186,29.5 L27.5622066,29.5 L27.5622066,24.985588 C27.5622066,24.4332817 27.1144913,23.9847418 26.5622066,23.9847418 C26.0060714,23.9847418 25.5622066,24.4328359 25.5622066,24.985588 L25.5622066,29.5 Z" id="Combined-Shape"></path>
                </g>
            </g>
        </g>
    </g>
</svg>